<svg xmlns="http://www.w3.org/2000/svg" viewBox="0 0 900 900" role="img" aria-labelledby="title desc">
  <title id="title">Cellular Agriculture Institute of the Commons logo</title>
  <desc id="desc">Red and green circular logo with organization name</desc>
  <rect width="900" height="900" fill="#ffffff"/>
  <g transform="translate(120 135)">
    <path d="M170 0A170 170 0 1 0 290 290" fill="none" stroke="#ef0030" stroke-width="42" stroke-linecap="round"/>
    <path d="M170 0A170 170 0 0 0 0 170v0a170 170 0 0 0 170 170V0Z" fill="#ef0030"/>
    <circle cx="300" cy="58" r="54" fill="#ef0030"/>
    <path d="M535 25A170 170 0 0 1 680 170v0a170 170 0 0 1-145 168V25Z" fill="#0d8b77"/>
    <path d="M535 25A170 170 0 0 0 392 126" fill="none" stroke="#0d8b77" stroke-width="42" stroke-linecap="round"/>
    <circle cx="453" cy="270" r="62" fill="#0d8b77"/>
  </g>
  <g fill="#111111" font-family="Arial, Helvetica, sans-serif" font-weight="700" text-anchor="middle">
    <text x="450" y="635" font-size="82">Cellular Agriculture</text>
    <text x="450" y="735" font-size="82">Institute of the Commons</text>
  </g>
</svg>
